<?xml version="1.0" standalone="no"?><!DOCTYPE svg PUBLIC "-//W3C//DTD SVG 1.1//EN" "http://www.w3.org/Graphics/SVG/1.1/DTD/svg11.dtd"><svg t="1765395158964" class="icon" viewBox="0 0 1349 1024" version="1.1" xmlns="http://www.w3.org/2000/svg" p-id="1621" xmlns:xlink="http://www.w3.org/1999/xlink" width="263.4765625" height="200"><path d="M1328.872727 168.029091C1273.949091 31.185455 1239.04 0 1239.04 0a142.894545 142.894545 0 0 1-19.549091 136.843636c-50.734545 58.647273-265.774545 78.196364-325.818182 238.312728a476.16 476.16 0 0 0-31.650909 121.018181c-37.236364-183.389091-117.294545-386.792727-365.847273-421.701818C218.763636 35.374545 195.490909 139.636364 0 128.930909a375.621818 375.621818 0 0 1 232.727273 226.676364c70.283636 186.181818 210.850909 477.090909 504.087272 504.087272 117.294545 12.101818 186.181818 62.836364 210.85091 164.305455-46.545455-186.181818-136.378182-637.207273-691.665455-859.694545 89.832727 7.447273 519.912727 46.545455 629.294545 519.447272a655.36 655.36 0 0 0 46.545455 258.327273s-58.647273-199.68-23.272727-254.138182 124.741818-62.370909 222.487272-101.469091 279.738182-226.676364 197.818182-418.443636zM1082.647273 418.909091c-58.647273 51.2-160.116364 139.636364-179.665455 186.181818-4.189091 19.549091-11.636364 42.821818-15.825454 74.007273-3.723636-35.374545-7.912727-74.007273-11.636364-117.294546A465.454545 465.454545 0 0 1 977.454545 414.254545c58.647273-54.458182 186.181818-132.654545 265.774546-210.850909-12.101818 50.734545-101.934545 163.84-160.581818 215.505455z" fill="#72CAC9" p-id="1622"></path></svg>